<?xml version="1.0" encoding="UTF-8" standalone="no"?>
<!-- Created with Inkscape (http://www.inkscape.org/) -->

<svg
   xmlns:dc="http://purl.org/dc/elements/1.1/"
   xmlns:cc="http://creativecommons.org/ns#"
   xmlns:rdf="http://www.w3.org/1999/02/22-rdf-syntax-ns#"
   xmlns:svg="http://www.w3.org/2000/svg"
   xmlns="http://www.w3.org/2000/svg"
   xmlns:sodipodi="http://sodipodi.sourceforge.net/DTD/sodipodi-0.dtd"
   xmlns:inkscape="http://www.inkscape.org/namespaces/inkscape"
   width="210mm"
   height="297mm"
   viewBox="0 0 210 297"
   version="1.1"
   id="svg8"
   inkscape:version="0.92.5 (2060ec1f9f, 2020-04-08)"
   sodipodi:docname="sbitx_icon.svg"
   inkscape:export-filename="/home/farhan/Desktop/sbitx_icon.png"
   inkscape:export-xdpi="100"
   inkscape:export-ydpi="100">
  <defs
     id="defs2">
    <style
       id="style45101"
       type="text/css">
    .str0 {stroke:black;stroke-width:35.28}
    .str2 {stroke:black;stroke-width:35.28}
    .str3 {stroke:black;stroke-width:35.82}
    .str1 {stroke:black;stroke-width:141.1}
    .fil0 {fill:none}
    .fil2 {fill:black}
    .fil1 {fill:#E6E6E6}
    .fil3 {fill:white}
  </style>
  </defs>
  <sodipodi:namedview
     id="base"
     pagecolor="#ffffff"
     bordercolor="#666666"
     borderopacity="1.0"
     inkscape:pageopacity="0.0"
     inkscape:pageshadow="2"
     inkscape:zoom="1.4"
     inkscape:cx="407.82553"
     inkscape:cy="705.29376"
     inkscape:document-units="mm"
     inkscape:current-layer="layer1"
     showgrid="false"
     inkscape:snap-others="false"
     inkscape:snap-nodes="false"
     inkscape:window-width="1310"
     inkscape:window-height="704"
     inkscape:window-x="56"
     inkscape:window-y="27"
     inkscape:window-maximized="1" />
  <metadata
     id="metadata5">
    <rdf:RDF>
      <cc:Work
         rdf:about="">
        <dc:format>image/svg+xml</dc:format>
        <dc:type
           rdf:resource="http://purl.org/dc/dcmitype/StillImage" />
        <dc:title></dc:title>
      </cc:Work>
    </rdf:RDF>
  </metadata>
  <g
     inkscape:label="Layer 1"
     inkscape:groupmode="layer"
     id="layer1">
    <rect
       style="opacity:1;fill:#666666;fill-opacity:1;stroke:none;stroke-width:0.15580808;stroke-miterlimit:4;stroke-dasharray:none;stroke-opacity:1"
       id="rect10"
       width="24.887539"
       height="24.119106"
       x="62.794903"
       y="73.65995"
       inkscape:export-xdpi="50.194328"
       inkscape:export-ydpi="50.194328"
       ry="2.8348215" />
    <rect
       style="opacity:1;fill:#ffffff;fill-opacity:1;stroke:none;stroke-width:0.16505682;stroke-miterlimit:4;stroke-dasharray:none;stroke-opacity:1"
       id="rect12"
       width="21.559422"
       height="10.795924"
       x="64.425392"
       y="75.511841"
       ry="1.8155994"
       inkscape:export-xdpi="50.194328"
       inkscape:export-ydpi="50.194328" />
    <g
       style="clip-rule:evenodd;fill-rule:evenodd;image-rendering:optimizeQuality;shape-rendering:geometricPrecision;text-rendering:geometricPrecision"
       id="g45180"
       transform="matrix(0.00190219,0,0,0.00190219,64.374456,75.882366)"
       inkscape:export-xdpi="50.194328"
       inkscape:export-ydpi="50.194328">
      <g
         id="Laag_x0020_1">
  <line
   id="line45105"
   class="fil0 str0"
   y2="3179"
   x1="5658"
   x2="5658"
   y1="4355"
   style="fill:none;stroke:#000000;stroke-width:35.27999878" />

  <path
   id="path45107"
   d="M 2047,4321 100,2374 C 1523,951 3488,71 5658,71 7828,71 9794,951 11216,2374 L 9269,4321 C 8345,3397 7068,2825 5658,2825 4248,2825 2971,3397 2047,4321 Z"
   class="fil1 str1"
   inkscape:connector-curvature="0"
   style="fill:#e6e6e6;stroke:#000000;stroke-width:141.1000061" />

  <circle
   id="circle45109"
   class="fil1 str1"
   r="3222"
   cx="5658"
   cy="7932"
   style="fill:#e6e6e6;stroke:#000000;stroke-width:141.1000061" />

  <line
   id="line45111"
   class="fil0 str2"
   y2="1910"
   x1="1048"
   x2="605"
   y1="2438"
   style="fill:none;stroke:#000000;stroke-width:35.27999878" />

  <line
   id="line45113"
   class="fil0 str2"
   y2="1493"
   x1="1544"
   x2="1149"
   y1="2057"
   style="fill:none;stroke:#000000;stroke-width:35.27999878" />

  <line
   id="line45115"
   class="fil0 str2"
   y2="1124"
   x1="2072"
   x2="1728"
   y1="1720"
   style="fill:none;stroke:#000000;stroke-width:35.27999878" />

  <line
   id="line45117"
   class="fil0 str2"
   y2="807"
   x1="2627"
   x2="2336"
   y1="1431"
   style="fill:none;stroke:#000000;stroke-width:35.27999878" />

  <line
   id="line45119"
   class="fil0 str2"
   y2="545"
   x1="3205"
   x2="2970"
   y1="1192"
   style="fill:none;stroke:#000000;stroke-width:35.27999878" />

  <line
   id="line45121"
   class="fil0 str2"
   y2="338"
   x1="3802"
   x2="3624"
   y1="1003"
   style="fill:none;stroke:#000000;stroke-width:35.27999878" />

  <line
   id="line45123"
   class="fil0 str2"
   y2="190"
   x1="4413"
   x2="4293"
   y1="868"
   style="fill:none;stroke:#000000;stroke-width:35.27999878" />

  <line
   id="line45125"
   class="fil0 str2"
   y2="100"
   x1="5034"
   x2="4974"
   y1="786"
   style="fill:none;stroke:#000000;stroke-width:35.27999878" />

  <line
   id="line45127"
   class="fil0 str2"
   y2="71"
   x1="5659"
   x2="5659"
   y1="759"
   style="fill:none;stroke:#000000;stroke-width:35.27999878" />

  <line
   id="line45129"
   class="fil0 str2"
   y2="1910"
   x1="10269"
   x2="10712"
   y1="2438"
   style="fill:none;stroke:#000000;stroke-width:35.27999878" />

  <line
   id="line45131"
   class="fil0 str2"
   y2="1493"
   x1="9773"
   x2="10168"
   y1="2057"
   style="fill:none;stroke:#000000;stroke-width:35.27999878" />

  <line
   id="line45133"
   class="fil0 str2"
   y2="1124"
   x1="9245"
   x2="9589"
   y1="1720"
   style="fill:none;stroke:#000000;stroke-width:35.27999878" />

  <line
   id="line45135"
   class="fil0 str2"
   y2="807"
   x1="8690"
   x2="8981"
   y1="1431"
   style="fill:none;stroke:#000000;stroke-width:35.27999878" />

  <line
   id="line45137"
   class="fil0 str2"
   y2="545"
   x1="8112"
   x2="8348"
   y1="1192"
   style="fill:none;stroke:#000000;stroke-width:35.27999878" />

  <line
   id="line45139"
   class="fil0 str2"
   y2="338"
   x1="7515"
   x2="7693"
   y1="1003"
   style="fill:none;stroke:#000000;stroke-width:35.27999878" />

  <line
   id="line45141"
   class="fil0 str2"
   y2="190"
   x1="6904"
   x2="7024"
   y1="868"
   style="fill:none;stroke:#000000;stroke-width:35.27999878" />

  <line
   id="line45143"
   class="fil0 str2"
   y2="100"
   x1="6284"
   x2="6344"
   y1="786"
   style="fill:none;stroke:#000000;stroke-width:35.27999878" />

  <path
   id="path45145"
   d="M 7390,3127 C 8013,1826 8506,853 8506,853 c 0,0 -319,1044 -770,2413 -57,-25 -114,-50 -172,-73 -58,-23 -116,-45 -174,-66 z"
   class="fil2 str3"
   inkscape:connector-curvature="0"
   style="fill:#000000;stroke:#000000;stroke-width:35.81999969" />

  <polygon
   id="polygon45147"
   class="fil3 str0"
   points="7002,5922 7025,6089 7192,6063 7199,6232 7368,6222 7358,6391 7527,6398 7501,6565 7669,6589 7626,6753 7791,6792 7732,6951 7892,7007 7818,7159 7972,7230 7884,7375 8030,7460 7928,7595 8064,7695 7950,7819 8076,7932 7950,8045 8064,8169 7928,8269 8030,8404 7884,8489 7972,8634 7818,8705 7892,8857 7732,8913 7791,9072 7626,9111 7669,9275 7501,9299 7527,9466 7358,9473 7368,9642 7199,9632 7192,9801 7025,9775 7002,9942 6838,9900 6798,10064 6639,10006 6584,10166 6431,10092 6360,10246 6216,10157 6130,10303 5995,10201 5895,10338 5771,10223 5658,10350 5546,10223 5421,10338 5322,10201 5187,10303 5101,10157 4956,10246 4885,10092 4733,10166 4677,10006 4518,10064 4479,9900 4315,9942 4292,9775 4124,9801 4118,9632 3949,9642 3958,9473 3789,9466 3816,9299 3648,9275 3690,9111 3526,9072 3584,8913 3424,8857 3498,8705 3345,8634 3433,8489 3287,8404 3389,8269 3252,8169 3367,8045 3240,7932 3367,7819 3252,7695 3389,7595 3287,7460 3433,7375 3345,7230 3498,7159 3424,7007 3584,6951 3526,6792 3690,6753 3648,6589 3816,6565 3789,6398 3958,6391 3949,6222 4118,6232 4124,6063 4292,6089 4315,5922 4479,5964 4518,5800 4677,5858 4733,5698 4885,5772 4956,5618 5101,5707 5187,5561 5322,5663 5421,5526 5546,5641 5658,5514 5771,5641 5895,5526 5995,5663 6130,5561 6216,5707 6360,5618 6431,5772 6584,5698 6639,5858 6798,5800 6838,5964 "
   style="fill:#ffffff;stroke:#000000;stroke-width:35.27999878" />

 </g>
    </g>
  </g>
</svg>
